<svg version="1.1" baseProfile="full" xmlns="http://www.w3.org/2000/svg" width="800" height="300">
<path d="M 0 146.70 C 398.27 186.21, 427.72 320.31, 800.00 173.39 " class="" style="fill: transparent; stroke: rgb(204, 0, 0);"></path>
<path d="M 0 158.20 C 357.25 338.14, 404.71 102.65, 800.00 163.93 " class="" style="fill: transparent; stroke: rgb(204, 102, 0);"></path>
<path d="M 0 144.94 C 372.70 290.21, 400.77 115.09, 800.00 140.09 " class="" style="fill: transparent; stroke: rgb(204, 204, 0);"></path>
<path d="M 0 130.82 C 399.99 134.32, 400.35 117.70, 800.00 134.56 " class="" style="fill: transparent; stroke: rgb(102, 204, 0);"></path>
<path d="M 0 177.52 C 356.54 -4.89, 420.68 9.26, 800.00 137.75 " class="" style="fill: transparent; stroke: rgb(0, 204, 0);"></path>
<path d="M 0 175.82 C 392.94 250.84, 425.17 24.89, 800.00 164.64 " class="" style="fill: transparent; stroke: rgb(0, 204, 102);"></path>
<path d="M 0 157.58 C 349.77 351.70, 400.60 171.77, 800.00 149.43 " class="" style="fill: transparent; stroke: rgb(0, 204, 204);"></path>
<path d="M 0 154.09 C 398.35 191.16, 432.09 11.74, 800.00 168.89 " class="" style="fill: transparent; stroke: rgb(0, 102, 204);"></path>
<path d="M 0 168.92 C 362.43 338.24, 447.92 -10.37, 800.00 179.55 " class="" style="fill: transparent; stroke: rgb(0, 0, 204);"></path>
<path d="M 0 157.89 C 399.81 141.66, 430.15 289.58, 800.00 136.86 " class="" style="fill: transparent; stroke: rgb(102, 0, 204);"></path>
<path d="M 0 149.38 C 398.35 185.70, 400.44 132.88, 800.00 151.66 " class="" style="fill: transparent; stroke: rgb(204, 0, 204);"></path>
<path d="M 0 145.12 C 397.77 189.38, 404.13 230.90, 800.00 172.00 " class="" style="fill: transparent; stroke: rgb(204, 0, 102);"></path>
</svg>
